<svg width="380" height="300" viewBox="0 0 380 300" xmlns="http://www.w3.org/2000/svg">
<defs>
<clipPath id="round3"><rect x="0" y="0" width="380" height="300" rx="14"/></clipPath>
</defs>
<g clip-path="url(#round3)">
<image href="https://raw.githubusercontent.com/MILLERMARRU/MILLERMARRU/main/images/projects/screenshots/alenor.jpg" x="0" y="0" width="380" height="170" preserveAspectRatio="xMidYMid slice"/>
<rect x="0" y="170" width="380" height="130" fill="#0d1117"/>
<circle cx="34" cy="206" r="16" fill="#F472B633"/>
<g transform="translate(22,194)" color="#F472B6">
<path fill="none" stroke="currentColor" stroke-linecap="round" stroke-linejoin="round" stroke-width="2" d="M11.017 2.814a1 1 0 0 1 1.966 0l1.051 5.558a2 2 0 0 0 1.594 1.594l5.558 1.051a1 1 0 0 1 0 1.966l-5.558 1.051a2 2 0 0 0-1.594 1.594l-1.051 5.558a1 1 0 0 1-1.966 0l-1.051-5.558a2 2 0 0 0-1.594-1.594l-5.558-1.051a1 1 0 0 1 0-1.966l5.558-1.051a2 2 0 0 0 1.594-1.594zM20 2v4m2-2h-4"/>
<circle cx="4" cy="20" r="2" fill="none" stroke="currentColor" stroke-width="2"/>
</g>
<text x="60" y="213" font-family="Segoe UI, Helvetica, Arial, sans-serif" font-size="19" font-weight="700" fill="#e6edf3">Alenor</text>
<text x="24" y="241" font-family="Segoe UI, Helvetica, Arial, sans-serif" font-size="12.5" fill="#9ca3af">E-commerce de jabones artesanales</text>
<text x="24" y="259" font-family="Segoe UI, Helvetica, Arial, sans-serif" font-size="12.5" fill="#9ca3af">naturales, envíos a nivel nacional.</text>
<text x="24" y="289" font-family="Segoe UI, Helvetica, Arial, sans-serif" font-size="12.5" font-weight="600" fill="#F472B6">Ver demo →</text>
</g>
<rect x="0.5" y="0.5" width="379" height="299" rx="14" fill="none" stroke="#30363d"/>
</svg>
