<svg width="380" height="300" viewBox="0 0 380 300" xmlns="http://www.w3.org/2000/svg">
<defs>
<clipPath id="round4"><rect x="0" y="0" width="380" height="300" rx="14"/></clipPath>
</defs>
<g clip-path="url(#round4)">
<image href="https://raw.githubusercontent.com/MILLERMARRU/MILLERMARRU/main/images/projects/screenshots/buzzbuzz.jpg" x="0" y="0" width="380" height="170" preserveAspectRatio="xMidYMid slice"/>
<rect x="0" y="170" width="380" height="130" fill="#0d1117"/>
<circle cx="34" cy="206" r="16" fill="#A78BFA33"/>
<g transform="translate(22,194)" color="#A78BFA">
<path fill="none" stroke="currentColor" stroke-linecap="round" stroke-linejoin="round" stroke-width="2" d="M6 11h4M8 9v4m7-1h.01M18 10h.01m-.69-5H6.68a4 4 0 0 0-3.978 3.59l-.017.152C2.604 9.416 2 14.456 2 16a3 3 0 0 0 3 3c1 0 1.5-.5 2-1l1.414-1.414A2 2 0 0 1 9.828 16h4.344a2 2 0 0 1 1.414.586L17 18c.5.5 1 1 2 1a3 3 0 0 0 3-3c0-1.545-.604-6.584-.685-7.258q-.01-.075-.017-.151A4 4 0 0 0 17.32 5"/>
</g>
<text x="60" y="213" font-family="Segoe UI, Helvetica, Arial, sans-serif" font-size="18" font-weight="700" fill="#e6edf3">Buzz Lightyear 3D</text>
<text x="24" y="241" font-family="Segoe UI, Helvetica, Arial, sans-serif" font-size="12.5" fill="#9ca3af">Experiencia interactiva en 3D - explora</text>
<text x="24" y="259" font-family="Segoe UI, Helvetica, Arial, sans-serif" font-size="12.5" fill="#9ca3af">e interactúa con el personaje.</text>
<text x="24" y="289" font-family="Segoe UI, Helvetica, Arial, sans-serif" font-size="12.5" font-weight="600" fill="#A78BFA">Ver demo →</text>
</g>
<rect x="0.5" y="0.5" width="379" height="299" rx="14" fill="none" stroke="#30363d"/>
</svg>
