<svg width="380" height="136" viewBox="0 0 380 136" xmlns="http://www.w3.org/2000/svg">
<rect x="0.5" y="0.5" width="379" height="135" rx="14" fill="#0d1117" stroke="#30363d"/>
<rect x="0" y="0" width="6" height="136" rx="3" fill="#38BDF8"/>
<circle cx="34" cy="34" r="16" fill="#38BDF833"/>
<g transform="translate(22,22)" color="#38BDF8">
<path fill="none" stroke="currentColor" stroke-linecap="round" stroke-linejoin="round" stroke-width="2" d="M12 7v14m-9-3a1 1 0 0 1-1-1V4a1 1 0 0 1 1-1h5a4 4 0 0 1 4 4a4 4 0 0 1 4-4h5a1 1 0 0 1 1 1v13a1 1 0 0 1-1 1h-6a3 3 0 0 0-3 3a3 3 0 0 0-3-3z"/>
</g>
<text x="60" y="41" font-family="Segoe UI, Helvetica, Arial, sans-serif" font-size="19" font-weight="700" fill="#e6edf3">DocHubs</text>
<text x="24" y="70" font-family="Segoe UI, Helvetica, Arial, sans-serif" font-size="12.5" fill="#9ca3af">Plataforma de documentación colaborativa</text>
<text x="24" y="88" font-family="Segoe UI, Helvetica, Arial, sans-serif" font-size="12.5" fill="#9ca3af">para developers, con GitHub como storage.</text>
<text x="24" y="118" font-family="Segoe UI, Helvetica, Arial, sans-serif" font-size="12.5" font-weight="600" fill="#38BDF8">Ver demo →</text>
</svg>
