<svg width="380" height="195" viewBox="0 0 380 195" xmlns="http://www.w3.org/2000/svg">
<rect x="0.5" y="0.5" width="379" height="194" rx="14" fill="#0d1117" stroke="#30363d"/>
<text x="20" y="30" font-family="Segoe UI, Helvetica, Arial, sans-serif" font-size="12.5" font-weight="600" fill="#9ca3af" letter-spacing="0.4">TOP LANGUAGES · POR REPOS</text>
<text x="20" y="60" font-family="Segoe UI, Helvetica, Arial, sans-serif" font-size="12.5" fill="#e6edf3">TypeScript</text>
<rect x="110" y="52" width="190" height="8" rx="4" fill="#21262d"/>
<rect x="110" y="52" width="190" height="8" rx="4" fill="#3178C6"/>
<text x="310" y="60" font-family="Segoe UI, Helvetica, Arial, sans-serif" font-size="11.5" fill="#9ca3af">41</text>
<text x="20" y="88" font-family="Segoe UI, Helvetica, Arial, sans-serif" font-size="12.5" fill="#e6edf3">JavaScript</text>
<rect x="110" y="80" width="190" height="8" rx="4" fill="#21262d"/>
<rect x="110" y="80" width="83" height="8" rx="4" fill="#F7DF1E"/>
<text x="310" y="88" font-family="Segoe UI, Helvetica, Arial, sans-serif" font-size="11.5" fill="#9ca3af">18</text>
<text x="20" y="116" font-family="Segoe UI, Helvetica, Arial, sans-serif" font-size="12.5" fill="#e6edf3">Java</text>
<rect x="110" y="108" width="190" height="8" rx="4" fill="#21262d"/>
<rect x="110" y="108" width="74" height="8" rx="4" fill="#ED8B00"/>
<text x="310" y="116" font-family="Segoe UI, Helvetica, Arial, sans-serif" font-size="11.5" fill="#9ca3af">16</text>
<text x="20" y="144" font-family="Segoe UI, Helvetica, Arial, sans-serif" font-size="12.5" fill="#e6edf3">Python</text>
<rect x="110" y="136" width="190" height="8" rx="4" fill="#21262d"/>
<rect x="110" y="136" width="37" height="8" rx="4" fill="#3776AB"/>
<text x="310" y="144" font-family="Segoe UI, Helvetica, Arial, sans-serif" font-size="11.5" fill="#9ca3af">8</text>
<text x="20" y="172" font-family="Segoe UI, Helvetica, Arial, sans-serif" font-size="12.5" fill="#e6edf3">CSS</text>
<rect x="110" y="164" width="190" height="8" rx="4" fill="#21262d"/>
<rect x="110" y="164" width="32" height="8" rx="4" fill="#1572B6"/>
<text x="310" y="172" font-family="Segoe UI, Helvetica, Arial, sans-serif" font-size="11.5" fill="#9ca3af">7</text>
</svg>
