<svg width="380" height="136" viewBox="0 0 380 136" xmlns="http://www.w3.org/2000/svg">
<rect x="0.5" y="0.5" width="379" height="135" rx="14" fill="#0d1117" stroke="#30363d"/>
<rect x="0" y="0" width="6" height="136" rx="3" fill="#94A3B8"/>
<circle cx="34" cy="34" r="16" fill="#94A3B833"/>
<g transform="translate(22,22)" color="#94A3B8">
<path fill="none" stroke="currentColor" stroke-linecap="round" stroke-linejoin="round" stroke-width="2" d="M18 19a5 5 0 0 1-5-5v8"/>
<path fill="none" stroke="currentColor" stroke-linecap="round" stroke-linejoin="round" stroke-width="2" d="M9 20H4a2 2 0 0 1-2-2V5a2 2 0 0 1 2-2h3.9a2 2 0 0 1 1.69.9l.81 1.2a2 2 0 0 0 1.67.9H20a2 2 0 0 1 2 2v5"/>
<circle cx="13" cy="12" r="2" fill="none" stroke="currentColor" stroke-width="2"/>
<circle cx="20" cy="19" r="2" fill="none" stroke="currentColor" stroke-width="2"/>
</g>
<text x="60" y="41" font-family="Segoe UI, Helvetica, Arial, sans-serif" font-size="18" font-weight="700" fill="#e6edf3">¿Quieres ver más?</text>
<text x="24" y="70" font-family="Segoe UI, Helvetica, Arial, sans-serif" font-size="12.5" fill="#9ca3af">117 repositorios propios entre</text>
<text x="24" y="88" font-family="Segoe UI, Helvetica, Arial, sans-serif" font-size="12.5" fill="#9ca3af">clientes, práctica e IA/ML.</text>
<text x="24" y="118" font-family="Segoe UI, Helvetica, Arial, sans-serif" font-size="12.5" font-weight="600" fill="#94A3B8">Ver repos →</text>
</svg>
